<svg xmlns="http://www.w3.org/2000/svg" width="10.837" height="7.537" viewBox="0 0 10.837 7.537">
  <g id="Grupo_30" data-name="Grupo 30" transform="translate(-38.871 -499.373)">
    <g id="Grupo_29" data-name="Grupo 29">
      <path id="Caminho_7" data-name="Caminho 7" d="M38.871,500.245v5.793a.875.875,0,0,0,.877.872h9.083a.875.875,0,0,0,.877-.872v-5.793a.874.874,0,0,0-.877-.872H39.748A.874.874,0,0,0,38.871,500.245Zm9.02,5.488-1.943-2.69-.31.276L44.311,504.5l-1.426-1.257-.154-.135-1.9,2.628h-.989l2.282-3.161-2.165-1.907h1.292l3.056,2.692,3.032-2.692h1.287l-2.077,1.843,2.329,3.225Z" fill="#040505"/>
    </g>
  </g>
</svg>
